# xmcd
#
# Track frame offsets: 
#        150
#        15452
#        28610
#        40280
#        52967
#        66217
#        76010
#        87782
#        99720
#        112205
#        124590
#        137110
#        148747
#        160785
#        175752
#        186512
#        199257
#        210535
#        221410
#        234765
#        246060
#        256530
#        268557
#        282165
#
# Disc length: 3952 seconds
#
# Revision: 4
# Processed by: cddbd v1.5.2PL0 Copyright (c) Steve Scherf et al.
# Submitted via: ExactAudioCopyFreeDBPlugin 1.0
#
DISCID=4b0f6e18
DTITLE=Irma Thomas - Time Is On My Side
DYEAR=1996
DGENRE=Soul
TTITLE0=Take a Look
TTITLE1=Time is on My Side
TTITLE2=Baby Don't Look Down
TTITLE3=Times Have Changed
TTITLE4=I Done Got Over It
TTITLE5=It's Raining
TTITLE6=Somebody Told You
TTITLE7=Wait, Wait, Wait
TTITLE8=Break-A-Way
TTITLE9=I Haven't Got Time to Cry
TTITLE10=Some Things You Never Get Used To
TTITLE11=Look Up (When Ever)
TTITLE12=Ruler of My Heart
TTITLE13=I Need Your Love So Bad
TTITLE14=Wish Someone Would Care
TTITLE15=(I Want A) True, True Love
TTITLE16=I Did My Part
TTITLE17=You Don't Miss a Good Thing (Until It's Gone)
TTITLE18=Anyone Who Knows What Love Is (Will Understand)
TTITLE19=Straight from the Heart
TTITLE20=Gone
TTITLE21=Two Winters Long
TTITLE22=Without Love (There is Nothing)
TTITLE23=It's a Man's-Woman's World (Parts 1 and 2)
EXTD=
EXTT0=
EXTT1=
EXTT2=
EXTT3=
EXTT4=
EXTT5=
EXTT6=
EXTT7=
EXTT8=
EXTT9=
EXTT10=
EXTT11=
EXTT12=
EXTT13=
EXTT14=
EXTT15=
EXTT16=
EXTT17=
EXTT18=
EXTT19=
EXTT20=
EXTT21=
EXTT22=
EXTT23=
PLAYORDER=
